<svg width="54" height="54" viewBox="0 0 54 54" fill="none" xmlns="http://www.w3.org/2000/svg">
<path d="M10.6 40.6C12.8667 38.8667 15.4 37.5 18.2 36.5C21 35.5 23.9334 35 27 35C30.0667 35 33 35.5 35.8 36.5C38.6 37.5 41.1334 38.8667 43.4 40.6C44.9556 38.7778 46.1667 36.7111 47.0334 34.4C47.9 32.0889 48.3334 29.6222 48.3334 27C48.3334 21.0889 46.2556 16.0556 42.1 11.9C37.9445 7.74444 32.9112 5.66666 27 5.66666C21.0889 5.66666 16.0556 7.74444 11.9 11.9C7.74449 16.0556 5.66671 21.0889 5.66671 27C5.66671 29.6222 6.10004 32.0889 6.96671 34.4C7.83337 36.7111 9.04449 38.7778 10.6 40.6ZM27 29.6667C24.3778 29.6667 22.1667 28.7667 20.3667 26.9667C18.5667 25.1667 17.6667 22.9556 17.6667 20.3333C17.6667 17.7111 18.5667 15.5 20.3667 13.7C22.1667 11.9 24.3778 11 27 11C29.6223 11 31.8334 11.9 33.6334 13.7C35.4334 15.5 36.3334 17.7111 36.3334 20.3333C36.3334 22.9556 35.4334 25.1667 33.6334 26.9667C31.8334 28.7667 29.6223 29.6667 27 29.6667ZM27 53.6667C23.3112 53.6667 19.8445 52.9667 16.6 51.5667C13.3556 50.1667 10.5334 48.2667 8.13337 45.8667C5.73337 43.4667 3.83337 40.6444 2.43337 37.4C1.03337 34.1556 0.333374 30.6889 0.333374 27C0.333374 23.3111 1.03337 19.8444 2.43337 16.6C3.83337 13.3556 5.73337 10.5333 8.13337 8.13333C10.5334 5.73333 13.3556 3.83333 16.6 2.43333C19.8445 1.03333 23.3112 0.333328 27 0.333328C30.6889 0.333328 34.1556 1.03333 37.4 2.43333C40.6445 3.83333 43.4667 5.73333 45.8667 8.13333C48.2667 10.5333 50.1667 13.3556 51.5667 16.6C52.9667 19.8444 53.6667 23.3111 53.6667 27C53.6667 30.6889 52.9667 34.1556 51.5667 37.4C50.1667 40.6444 48.2667 43.4667 45.8667 45.8667C43.4667 48.2667 40.6445 50.1667 37.4 51.5667C34.1556 52.9667 30.6889 53.6667 27 53.6667Z" fill="#1D1B20"/>
</svg>
