<svg width="93" height="93" viewBox="0 0 93 93" fill="none" xmlns="http://www.w3.org/2000/svg">
<path d="M28.1022 0.808762L36.1892 8.49135C39.2218 11.3218 40.8392 15.1631 40.8392 19.4088C40.8392 23.4522 42.4566 27.2935 45.287 30.124L46.2979 31.1348L55.5979 1.01092" fill="#201B21"/>
<path d="M0.606506 27.6978L11.7261 27.2935C15.7695 27.0913 19.813 28.7087 22.6434 31.5391C25.4739 34.3696 29.3152 35.7848 33.3587 35.7848H34.7739L19.813 8.08694" fill="#201B21"/>
<path d="M0.606528 66.1109L8.08696 58.0239C10.9174 54.9913 14.7587 53.1718 18.8022 53.1718C22.8457 53.1718 26.4848 51.3522 29.3152 48.5218L30.3261 47.5109L0 38.8174" fill="#201B21"/>
<path d="M28.1022 92.7979L27.4957 81.6783C27.2935 77.6348 28.7087 73.5914 31.5392 70.5588C34.1674 67.7283 35.7848 63.6848 35.5826 59.8435V58.4283L8.08698 73.9957" fill="#201B21"/>
<path d="M66.5153 91.9892L58.2262 84.7109C55.1936 82.0827 53.374 78.2413 53.1718 73.9957C52.9696 69.9522 51.1501 66.3131 48.3196 63.4827L47.3088 62.4718L39.2218 93" fill="#201B21"/>
<path d="M92.7978 63.8869L81.6782 64.6956C77.6347 65.1 73.5912 63.6847 70.5586 60.8543C67.526 58.2261 63.6847 56.8108 59.6413 57.013H58.226L74.4 84.1043" fill="#201B21"/>
<path d="M90.9782 25.6761L83.9021 34.1674C81.2739 37.2 77.4326 39.2218 73.3891 39.4239C69.3456 39.6261 65.7065 41.4457 63.0782 44.4783L62.2695 45.4892L93 52.7674" fill="#201B21"/>
<path d="M62.4718 0L63.4826 11.1196C63.887 15.163 62.674 19.2065 59.8435 22.4413C57.2153 25.4739 56.0022 29.3152 56.2044 33.3587L56.4066 34.7739L83.0935 17.9935" fill="#201B21"/>
</svg>
